<svg width="1440" height="900" viewBox="0 0 1440 900" xmlns="http://www.w3.org/2000/svg">
  <path d="M0,288L48,272C96,256,192,224,288,224C384,224,480,256,576,261.3C672,267,768,245,864,224C960,203,1056,181,1152,181.3C1248,181,1344,203,1392,213.3L1440,224L1440,0L1392,0C1344,0,1248,0,1152,0C1056,0,960,0,864,0C768,0,672,0,576,0C480,0,384,0,288,0C192,0,96,0,48,0L0,0Z" fill="#E0F2F1" fill-opacity="0.3"/>
  <path d="M0,288L48,272C96,256,192,224,288,224C384,224,480,256,576,261.3C672,267,768,245,864,224C960,203,1056,181,1152,181.3C1248,181,1344,203,1392,213.3L1440,224L1440,0L1392,0C1344,0,1248,0,1152,0C1056,0,960,0,864,0C768,0,672,0,576,0C480,0,384,0,288,0C192,0,96,0,48,0L0,0Z" fill="#F3E5F5" fill-opacity="0.2" transform="translate(0, 100)"/>
</svg> 